<?xml version="1.0" encoding="utf-8" standalone="no"?>
<!DOCTYPE svg PUBLIC "-//W3C//DTD SVG 1.1//EN"
  "http://www.w3.org/Graphics/SVG/1.1/DTD/svg11.dtd">
<svg xmlns:xlink="http://www.w3.org/1999/xlink" width="720pt" height="360pt" viewBox="0 0 720 360" xmlns="http://www.w3.org/2000/svg" version="1.1">
 <metadata>
  <rdf:RDF xmlns:dc="http://purl.org/dc/elements/1.1/" xmlns:cc="http://creativecommons.org/ns#" xmlns:rdf="http://www.w3.org/1999/02/22-rdf-syntax-ns#">
   <cc:Work>
    <dc:type rdf:resource="http://purl.org/dc/dcmitype/StillImage"/>
    <dc:date>2025-08-08T00:22:05.024884</dc:date>
    <dc:format>image/svg+xml</dc:format>
    <dc:creator>
     <cc:Agent>
      <dc:title>Matplotlib v3.10.0, https://matplotlib.org/</dc:title>
     </cc:Agent>
    </dc:creator>
   </cc:Work>
  </rdf:RDF>
 </metadata>
 <defs>
  <style type="text/css">*{stroke-linejoin: round; stroke-linecap: butt}</style>
 </defs>
 <g id="figure_1">
  <g id="patch_1">
   <path d="M 0 360
L 720 360
L 720 0
L 0 0
z
" style="fill: #ffffff"/>
  </g>
  <g id="axes_1">
   <g id="patch_2">
    <path d="M 58.52 318.04
L 709.2 318.04
L 709.2 10.8
L 58.52 10.8
z
" style="fill: #ffffff"/>
   </g>
   <g id="matplotlib.axis_1">
    <g id="xtick_1">
     <g id="line2d_1">
      <path d="M 81.44999 318.04
L 81.44999 10.8
" clip-path="url(#paca0006619)" style="fill: none; stroke-dasharray: 1.85,0.8; stroke-dashoffset: 0; stroke: #000000; stroke-width: 0.5"/>
     </g>
     <g id="line2d_2">
      <defs>
       <path id="m2020cf1a43" d="M 0 0
L 0 3.5
" style="stroke: #000000; stroke-width: 0.8"/>
      </defs>
      <g>
       <use xlink:href="#m2020cf1a43" x="81.44999" y="318.04" style="stroke: #000000; stroke-width: 0.8"/>
      </g>
     </g>
     <g id="text_1">
      <!-- 0 -->
      <g transform="translate(78.94999 331.98375) scale(0.1 -0.1)">
       <defs>
        <path id="TimesNewRomanPSMT-30" d="M 231 2094
Q 231 2819 450 3342
Q 669 3866 1031 4122
Q 1313 4325 1613 4325
Q 2100 4325 2488 3828
Q 2972 3213 2972 2159
Q 2972 1422 2759 906
Q 2547 391 2217 158
Q 1888 -75 1581 -75
Q 975 -75 572 641
Q 231 1244 231 2094
z
M 844 2016
Q 844 1141 1059 588
Q 1238 122 1591 122
Q 1759 122 1940 273
Q 2122 425 2216 781
Q 2359 1319 2359 2297
Q 2359 3022 2209 3506
Q 2097 3866 1919 4016
Q 1791 4119 1609 4119
Q 1397 4119 1231 3928
Q 1006 3669 925 3112
Q 844 2556 844 2016
z
" transform="scale(0.015625)"/>
       </defs>
       <use xlink:href="#TimesNewRomanPSMT-30"/>
      </g>
     </g>
    </g>
    <g id="xtick_2">
     <g id="line2d_3">
      <path d="M 214.377467 318.04
L 214.377467 10.8
" clip-path="url(#paca0006619)" style="fill: none; stroke-dasharray: 1.85,0.8; stroke-dashoffset: 0; stroke: #000000; stroke-width: 0.5"/>
     </g>
     <g id="line2d_4">
      <g>
       <use xlink:href="#m2020cf1a43" x="214.377467" y="318.04" style="stroke: #000000; stroke-width: 0.8"/>
      </g>
     </g>
     <g id="text_2">
      <!-- 20 -->
      <g transform="translate(209.377467 331.98375) scale(0.1 -0.1)">
       <defs>
        <path id="TimesNewRomanPSMT-32" d="M 2934 816
L 2638 0
L 138 0
L 138 116
Q 1241 1122 1691 1759
Q 2141 2397 2141 2925
Q 2141 3328 1894 3587
Q 1647 3847 1303 3847
Q 991 3847 742 3664
Q 494 3481 375 3128
L 259 3128
Q 338 3706 661 4015
Q 984 4325 1469 4325
Q 1984 4325 2329 3994
Q 2675 3663 2675 3213
Q 2675 2891 2525 2569
Q 2294 2063 1775 1497
Q 997 647 803 472
L 1909 472
Q 2247 472 2383 497
Q 2519 522 2628 598
Q 2738 675 2819 816
L 2934 816
z
" transform="scale(0.015625)"/>
       </defs>
       <use xlink:href="#TimesNewRomanPSMT-32"/>
       <use xlink:href="#TimesNewRomanPSMT-30" transform="translate(50 0)"/>
      </g>
     </g>
    </g>
    <g id="xtick_3">
     <g id="line2d_5">
      <path d="M 347.304944 318.04
L 347.304944 10.8
" clip-path="url(#paca0006619)" style="fill: none; stroke-dasharray: 1.85,0.8; stroke-dashoffset: 0; stroke: #000000; stroke-width: 0.5"/>
     </g>
     <g id="line2d_6">
      <g>
       <use xlink:href="#m2020cf1a43" x="347.304944" y="318.04" style="stroke: #000000; stroke-width: 0.8"/>
      </g>
     </g>
     <g id="text_3">
      <!-- 40 -->
      <g transform="translate(342.304944 331.98375) scale(0.1 -0.1)">
       <defs>
        <path id="TimesNewRomanPSMT-34" d="M 2978 1563
L 2978 1119
L 2409 1119
L 2409 0
L 1894 0
L 1894 1119
L 100 1119
L 100 1519
L 2066 4325
L 2409 4325
L 2409 1563
L 2978 1563
z
M 1894 1563
L 1894 3666
L 406 1563
L 1894 1563
z
" transform="scale(0.015625)"/>
       </defs>
       <use xlink:href="#TimesNewRomanPSMT-34"/>
       <use xlink:href="#TimesNewRomanPSMT-30" transform="translate(50 0)"/>
      </g>
     </g>
    </g>
    <g id="xtick_4">
     <g id="line2d_7">
      <path d="M 480.232421 318.04
L 480.232421 10.8
" clip-path="url(#paca0006619)" style="fill: none; stroke-dasharray: 1.85,0.8; stroke-dashoffset: 0; stroke: #000000; stroke-width: 0.5"/>
     </g>
     <g id="line2d_8">
      <g>
       <use xlink:href="#m2020cf1a43" x="480.232421" y="318.04" style="stroke: #000000; stroke-width: 0.8"/>
      </g>
     </g>
     <g id="text_4">
      <!-- 60 -->
      <g transform="translate(475.232421 331.98375) scale(0.1 -0.1)">
       <defs>
        <path id="TimesNewRomanPSMT-36" d="M 2869 4325
L 2869 4209
Q 2456 4169 2195 4045
Q 1934 3922 1679 3669
Q 1425 3416 1258 3105
Q 1091 2794 978 2366
Q 1428 2675 1881 2675
Q 2316 2675 2634 2325
Q 2953 1975 2953 1425
Q 2953 894 2631 456
Q 2244 -75 1606 -75
Q 1172 -75 869 213
Q 275 772 275 1663
Q 275 2231 503 2743
Q 731 3256 1154 3653
Q 1578 4050 1965 4187
Q 2353 4325 2688 4325
L 2869 4325
z
M 925 2138
Q 869 1716 869 1456
Q 869 1156 980 804
Q 1091 453 1309 247
Q 1469 100 1697 100
Q 1969 100 2183 356
Q 2397 613 2397 1088
Q 2397 1622 2184 2012
Q 1972 2403 1581 2403
Q 1463 2403 1327 2353
Q 1191 2303 925 2138
z
" transform="scale(0.015625)"/>
       </defs>
       <use xlink:href="#TimesNewRomanPSMT-36"/>
       <use xlink:href="#TimesNewRomanPSMT-30" transform="translate(50 0)"/>
      </g>
     </g>
    </g>
    <g id="xtick_5">
     <g id="line2d_9">
      <path d="M 613.159898 318.04
L 613.159898 10.8
" clip-path="url(#paca0006619)" style="fill: none; stroke-dasharray: 1.85,0.8; stroke-dashoffset: 0; stroke: #000000; stroke-width: 0.5"/>
     </g>
     <g id="line2d_10">
      <g>
       <use xlink:href="#m2020cf1a43" x="613.159898" y="318.04" style="stroke: #000000; stroke-width: 0.8"/>
      </g>
     </g>
     <g id="text_5">
      <!-- 80 -->
      <g transform="translate(608.159898 331.98375) scale(0.1 -0.1)">
       <defs>
        <path id="TimesNewRomanPSMT-38" d="M 1228 2134
Q 725 2547 579 2797
Q 434 3047 434 3316
Q 434 3728 753 4026
Q 1072 4325 1600 4325
Q 2113 4325 2425 4047
Q 2738 3769 2738 3413
Q 2738 3175 2569 2928
Q 2400 2681 1866 2347
Q 2416 1922 2594 1678
Q 2831 1359 2831 1006
Q 2831 559 2490 242
Q 2150 -75 1597 -75
Q 994 -75 656 303
Q 388 606 388 966
Q 388 1247 577 1523
Q 766 1800 1228 2134
z
M 1719 2469
Q 2094 2806 2194 3001
Q 2294 3197 2294 3444
Q 2294 3772 2109 3958
Q 1925 4144 1606 4144
Q 1288 4144 1088 3959
Q 888 3775 888 3528
Q 888 3366 970 3203
Q 1053 3041 1206 2894
L 1719 2469
z
M 1375 2016
Q 1116 1797 991 1539
Q 866 1281 866 981
Q 866 578 1086 336
Q 1306 94 1647 94
Q 1984 94 2187 284
Q 2391 475 2391 747
Q 2391 972 2272 1150
Q 2050 1481 1375 2016
z
" transform="scale(0.015625)"/>
       </defs>
       <use xlink:href="#TimesNewRomanPSMT-38"/>
       <use xlink:href="#TimesNewRomanPSMT-30" transform="translate(50 0)"/>
      </g>
     </g>
    </g>
    <g id="text_6">
     <!-- Flight Number -->
     <g transform="translate(354.277969 345.066563) scale(0.1 -0.1)">
      <defs>
       <path id="TimesNewRomanPSMT-46" d="M 1309 4006
L 1309 2341
L 2081 2341
Q 2347 2341 2470 2458
Q 2594 2575 2634 2922
L 2750 2922
L 2750 1488
L 2634 1488
Q 2631 1734 2570 1850
Q 2509 1966 2401 2023
Q 2294 2081 2081 2081
L 1309 2081
L 1309 750
Q 1309 428 1350 325
Q 1381 247 1481 191
Q 1619 116 1769 116
L 1922 116
L 1922 0
L 103 0
L 103 116
L 253 116
Q 516 116 634 269
Q 709 369 709 750
L 709 3488
Q 709 3809 669 3913
Q 638 3991 541 4047
Q 406 4122 253 4122
L 103 4122
L 103 4238
L 3256 4238
L 3297 3306
L 3188 3306
Q 3106 3603 2998 3742
Q 2891 3881 2733 3943
Q 2575 4006 2244 4006
L 1309 4006
z
" transform="scale(0.015625)"/>
       <path id="TimesNewRomanPSMT-6c" d="M 1184 4444
L 1184 647
Q 1184 378 1223 290
Q 1263 203 1344 158
Q 1425 113 1647 113
L 1647 0
L 244 0
L 244 113
Q 441 113 512 153
Q 584 194 625 287
Q 666 381 666 647
L 666 3247
Q 666 3731 644 3842
Q 622 3953 573 3993
Q 525 4034 450 4034
Q 369 4034 244 3984
L 191 4094
L 1044 4444
L 1184 4444
z
" transform="scale(0.015625)"/>
       <path id="TimesNewRomanPSMT-69" d="M 928 4444
Q 1059 4444 1151 4351
Q 1244 4259 1244 4128
Q 1244 3997 1151 3903
Q 1059 3809 928 3809
Q 797 3809 703 3903
Q 609 3997 609 4128
Q 609 4259 701 4351
Q 794 4444 928 4444
z
M 1188 2947
L 1188 647
Q 1188 378 1227 289
Q 1266 200 1342 156
Q 1419 113 1622 113
L 1622 0
L 231 0
L 231 113
Q 441 113 512 153
Q 584 194 626 287
Q 669 381 669 647
L 669 1750
Q 669 2216 641 2353
Q 619 2453 572 2492
Q 525 2531 444 2531
Q 356 2531 231 2484
L 188 2597
L 1050 2947
L 1188 2947
z
" transform="scale(0.015625)"/>
       <path id="TimesNewRomanPSMT-67" d="M 966 1044
Q 703 1172 562 1401
Q 422 1631 422 1909
Q 422 2334 742 2640
Q 1063 2947 1563 2947
Q 1972 2947 2272 2747
L 2878 2747
Q 3013 2747 3034 2739
Q 3056 2731 3066 2713
Q 3084 2684 3084 2613
Q 3084 2531 3069 2500
Q 3059 2484 3036 2475
Q 3013 2466 2878 2466
L 2506 2466
Q 2681 2241 2681 1891
Q 2681 1491 2375 1206
Q 2069 922 1553 922
Q 1341 922 1119 984
Q 981 866 932 777
Q 884 688 884 625
Q 884 572 936 522
Q 988 472 1138 450
Q 1225 438 1575 428
Q 2219 413 2409 384
Q 2700 344 2873 169
Q 3047 -6 3047 -263
Q 3047 -616 2716 -925
Q 2228 -1381 1444 -1381
Q 841 -1381 425 -1109
Q 191 -953 191 -784
Q 191 -709 225 -634
Q 278 -519 444 -313
Q 466 -284 763 25
Q 600 122 533 198
Q 466 275 466 372
Q 466 481 555 628
Q 644 775 966 1044
z
M 1509 2797
Q 1278 2797 1122 2612
Q 966 2428 966 2047
Q 966 1553 1178 1281
Q 1341 1075 1591 1075
Q 1828 1075 1981 1253
Q 2134 1431 2134 1813
Q 2134 2309 1919 2591
Q 1759 2797 1509 2797
z
M 934 0
Q 788 -159 713 -296
Q 638 -434 638 -550
Q 638 -700 819 -813
Q 1131 -1006 1722 -1006
Q 2284 -1006 2551 -807
Q 2819 -609 2819 -384
Q 2819 -222 2659 -153
Q 2497 -84 2016 -72
Q 1313 -53 934 0
z
" transform="scale(0.015625)"/>
       <path id="TimesNewRomanPSMT-68" d="M 1041 4444
L 1041 2350
Q 1388 2731 1591 2839
Q 1794 2947 1997 2947
Q 2241 2947 2416 2812
Q 2591 2678 2675 2391
Q 2734 2191 2734 1659
L 2734 647
Q 2734 375 2778 275
Q 2809 200 2884 156
Q 2959 113 3159 113
L 3159 0
L 1753 0
L 1753 113
L 1819 113
Q 2019 113 2097 173
Q 2175 234 2206 353
Q 2216 403 2216 647
L 2216 1659
Q 2216 2128 2167 2275
Q 2119 2422 2012 2495
Q 1906 2569 1756 2569
Q 1603 2569 1437 2487
Q 1272 2406 1041 2159
L 1041 647
Q 1041 353 1073 281
Q 1106 209 1195 161
Q 1284 113 1503 113
L 1503 0
L 84 0
L 84 113
Q 275 113 384 172
Q 447 203 484 290
Q 522 378 522 647
L 522 3238
Q 522 3728 498 3840
Q 475 3953 426 3993
Q 378 4034 297 4034
Q 231 4034 84 3984
L 41 4094
L 897 4444
L 1041 4444
z
" transform="scale(0.015625)"/>
       <path id="TimesNewRomanPSMT-74" d="M 1031 3803
L 1031 2863
L 1700 2863
L 1700 2644
L 1031 2644
L 1031 788
Q 1031 509 1111 412
Q 1191 316 1316 316
Q 1419 316 1516 380
Q 1613 444 1666 569
L 1788 569
Q 1678 263 1478 108
Q 1278 -47 1066 -47
Q 922 -47 784 33
Q 647 113 581 261
Q 516 409 516 719
L 516 2644
L 63 2644
L 63 2747
Q 234 2816 414 2980
Q 594 3144 734 3369
Q 806 3488 934 3803
L 1031 3803
z
" transform="scale(0.015625)"/>
       <path id="TimesNewRomanPSMT-20" transform="scale(0.015625)"/>
       <path id="TimesNewRomanPSMT-4e" d="M -84 4238
L 1066 4238
L 3656 1059
L 3656 3503
Q 3656 3894 3569 3991
Q 3453 4122 3203 4122
L 3056 4122
L 3056 4238
L 4531 4238
L 4531 4122
L 4381 4122
Q 4113 4122 4000 3959
Q 3931 3859 3931 3503
L 3931 -69
L 3819 -69
L 1025 3344
L 1025 734
Q 1025 344 1109 247
Q 1228 116 1475 116
L 1625 116
L 1625 0
L 150 0
L 150 116
L 297 116
Q 569 116 681 278
Q 750 378 750 734
L 750 3681
Q 566 3897 470 3965
Q 375 4034 191 4094
Q 100 4122 -84 4122
L -84 4238
z
" transform="scale(0.015625)"/>
       <path id="TimesNewRomanPSMT-75" d="M 2709 2863
L 2709 1128
Q 2709 631 2732 520
Q 2756 409 2807 365
Q 2859 322 2928 322
Q 3025 322 3147 375
L 3191 266
L 2334 -88
L 2194 -88
L 2194 519
Q 1825 119 1631 15
Q 1438 -88 1222 -88
Q 981 -88 804 51
Q 628 191 559 409
Q 491 628 491 1028
L 491 2306
Q 491 2509 447 2587
Q 403 2666 317 2708
Q 231 2750 6 2747
L 6 2863
L 1009 2863
L 1009 947
Q 1009 547 1148 422
Q 1288 297 1484 297
Q 1619 297 1789 381
Q 1959 466 2194 703
L 2194 2325
Q 2194 2569 2105 2655
Q 2016 2741 1734 2747
L 1734 2863
L 2709 2863
z
" transform="scale(0.015625)"/>
       <path id="TimesNewRomanPSMT-6d" d="M 1050 2338
Q 1363 2650 1419 2697
Q 1559 2816 1721 2881
Q 1884 2947 2044 2947
Q 2313 2947 2506 2790
Q 2700 2634 2766 2338
Q 3088 2713 3309 2830
Q 3531 2947 3766 2947
Q 3994 2947 4170 2830
Q 4347 2713 4450 2447
Q 4519 2266 4519 1878
L 4519 647
Q 4519 378 4559 278
Q 4591 209 4675 161
Q 4759 113 4950 113
L 4950 0
L 3538 0
L 3538 113
L 3597 113
Q 3781 113 3884 184
Q 3956 234 3988 344
Q 4000 397 4000 647
L 4000 1878
Q 4000 2228 3916 2372
Q 3794 2572 3525 2572
Q 3359 2572 3192 2489
Q 3025 2406 2788 2181
L 2781 2147
L 2788 2013
L 2788 647
Q 2788 353 2820 281
Q 2853 209 2943 161
Q 3034 113 3253 113
L 3253 0
L 1806 0
L 1806 113
Q 2044 113 2133 169
Q 2222 225 2256 338
Q 2272 391 2272 647
L 2272 1878
Q 2272 2228 2169 2381
Q 2031 2581 1784 2581
Q 1616 2581 1450 2491
Q 1191 2353 1050 2181
L 1050 647
Q 1050 366 1089 281
Q 1128 197 1204 155
Q 1281 113 1516 113
L 1516 0
L 100 0
L 100 113
Q 297 113 375 155
Q 453 197 493 289
Q 534 381 534 647
L 534 1741
Q 534 2213 506 2350
Q 484 2453 437 2492
Q 391 2531 309 2531
Q 222 2531 100 2484
L 53 2597
L 916 2947
L 1050 2947
L 1050 2338
z
" transform="scale(0.015625)"/>
       <path id="TimesNewRomanPSMT-62" d="M 984 2369
Q 1400 2947 1881 2947
Q 2322 2947 2650 2570
Q 2978 2194 2978 1541
Q 2978 778 2472 313
Q 2038 -88 1503 -88
Q 1253 -88 995 3
Q 738 94 469 275
L 469 3241
Q 469 3728 445 3840
Q 422 3953 372 3993
Q 322 4034 247 4034
Q 159 4034 28 3984
L -16 4094
L 844 4444
L 984 4444
L 984 2369
z
M 984 2169
L 984 456
Q 1144 300 1314 220
Q 1484 141 1663 141
Q 1947 141 2192 453
Q 2438 766 2438 1363
Q 2438 1913 2192 2208
Q 1947 2503 1634 2503
Q 1469 2503 1303 2419
Q 1178 2356 984 2169
z
" transform="scale(0.015625)"/>
       <path id="TimesNewRomanPSMT-65" d="M 681 1784
Q 678 1147 991 784
Q 1303 422 1725 422
Q 2006 422 2214 576
Q 2422 731 2563 1106
L 2659 1044
Q 2594 616 2278 264
Q 1963 -88 1488 -88
Q 972 -88 605 314
Q 238 716 238 1394
Q 238 2128 614 2539
Q 991 2950 1559 2950
Q 2041 2950 2350 2633
Q 2659 2316 2659 1784
L 681 1784
z
M 681 1966
L 2006 1966
Q 1991 2241 1941 2353
Q 1863 2528 1708 2628
Q 1553 2728 1384 2728
Q 1125 2728 920 2526
Q 716 2325 681 1966
z
" transform="scale(0.015625)"/>
       <path id="TimesNewRomanPSMT-72" d="M 1038 2947
L 1038 2303
Q 1397 2947 1775 2947
Q 1947 2947 2059 2842
Q 2172 2738 2172 2600
Q 2172 2478 2090 2393
Q 2009 2309 1897 2309
Q 1788 2309 1652 2417
Q 1516 2525 1450 2525
Q 1394 2525 1328 2463
Q 1188 2334 1038 2041
L 1038 669
Q 1038 431 1097 309
Q 1138 225 1241 169
Q 1344 113 1538 113
L 1538 0
L 72 0
L 72 113
Q 291 113 397 181
Q 475 231 506 341
Q 522 394 522 644
L 522 1753
Q 522 2253 501 2348
Q 481 2444 426 2487
Q 372 2531 291 2531
Q 194 2531 72 2484
L 41 2597
L 906 2947
L 1038 2947
z
" transform="scale(0.015625)"/>
      </defs>
      <use xlink:href="#TimesNewRomanPSMT-46"/>
      <use xlink:href="#TimesNewRomanPSMT-6c" transform="translate(55.615234 0)"/>
      <use xlink:href="#TimesNewRomanPSMT-69" transform="translate(83.398438 0)"/>
      <use xlink:href="#TimesNewRomanPSMT-67" transform="translate(111.181641 0)"/>
      <use xlink:href="#TimesNewRomanPSMT-68" transform="translate(161.181641 0)"/>
      <use xlink:href="#TimesNewRomanPSMT-74" transform="translate(211.181641 0)"/>
      <use xlink:href="#TimesNewRomanPSMT-20" transform="translate(238.964844 0)"/>
      <use xlink:href="#TimesNewRomanPSMT-4e" transform="translate(263.964844 0)"/>
      <use xlink:href="#TimesNewRomanPSMT-75" transform="translate(336.181641 0)"/>
      <use xlink:href="#TimesNewRomanPSMT-6d" transform="translate(386.181641 0)"/>
      <use xlink:href="#TimesNewRomanPSMT-62" transform="translate(463.964844 0)"/>
      <use xlink:href="#TimesNewRomanPSMT-65" transform="translate(513.964844 0)"/>
      <use xlink:href="#TimesNewRomanPSMT-72" transform="translate(558.349609 0)"/>
     </g>
    </g>
   </g>
   <g id="matplotlib.axis_2">
    <g id="ytick_1">
     <g id="line2d_11">
      <path d="M 58.52 24.765455
L 709.2 24.765455
" clip-path="url(#paca0006619)" style="fill: none; stroke-dasharray: 1.85,0.8; stroke-dashoffset: 0; stroke: #000000; stroke-width: 0.5"/>
     </g>
     <g id="line2d_12">
      <defs>
       <path id="mc777d5eb83" d="M 0 0
L -3.5 0
" style="stroke: #000000; stroke-width: 0.8"/>
      </defs>
      <g>
       <use xlink:href="#mc777d5eb83" x="58.52" y="24.765455" style="stroke: #000000; stroke-width: 0.8"/>
      </g>
     </g>
     <g id="text_7">
      <!-- LEO -->
      <g transform="translate(32.0825 28.23733) scale(0.1 -0.1)">
       <defs>
        <path id="TimesNewRomanPSMT-4c" d="M 3669 1172
L 3772 1150
L 3409 0
L 128 0
L 128 116
L 288 116
Q 556 116 672 291
Q 738 391 738 753
L 738 3488
Q 738 3884 650 3984
Q 528 4122 288 4122
L 128 4122
L 128 4238
L 2047 4238
L 2047 4122
Q 1709 4125 1573 4059
Q 1438 3994 1388 3894
Q 1338 3794 1338 3416
L 1338 753
Q 1338 494 1388 397
Q 1425 331 1503 300
Q 1581 269 1991 269
L 2300 269
Q 2788 269 2984 341
Q 3181 413 3343 595
Q 3506 778 3669 1172
z
" transform="scale(0.015625)"/>
        <path id="TimesNewRomanPSMT-45" d="M 1338 4006
L 1338 2331
L 2269 2331
Q 2631 2331 2753 2441
Q 2916 2584 2934 2947
L 3050 2947
L 3050 1472
L 2934 1472
Q 2891 1781 2847 1869
Q 2791 1978 2662 2040
Q 2534 2103 2269 2103
L 1338 2103
L 1338 706
Q 1338 425 1363 364
Q 1388 303 1450 267
Q 1513 231 1688 231
L 2406 231
Q 2766 231 2928 281
Q 3091 331 3241 478
Q 3434 672 3638 1063
L 3763 1063
L 3397 0
L 131 0
L 131 116
L 281 116
Q 431 116 566 188
Q 666 238 702 338
Q 738 438 738 747
L 738 3500
Q 738 3903 656 3997
Q 544 4122 281 4122
L 131 4122
L 131 4238
L 3397 4238
L 3444 3309
L 3322 3309
Q 3256 3644 3176 3769
Q 3097 3894 2941 3959
Q 2816 4006 2500 4006
L 1338 4006
z
" transform="scale(0.015625)"/>
        <path id="TimesNewRomanPSMT-4f" d="M 2341 4334
Q 3166 4334 3770 3707
Q 4375 3081 4375 2144
Q 4375 1178 3765 540
Q 3156 -97 2291 -97
Q 1416 -97 820 525
Q 225 1147 225 2134
Q 225 3144 913 3781
Q 1509 4334 2341 4334
z
M 2281 4106
Q 1713 4106 1369 3684
Q 941 3159 941 2147
Q 941 1109 1384 550
Q 1725 125 2284 125
Q 2881 125 3270 590
Q 3659 1056 3659 2059
Q 3659 3147 3231 3681
Q 2888 4106 2281 4106
z
" transform="scale(0.015625)"/>
       </defs>
       <use xlink:href="#TimesNewRomanPSMT-4c"/>
       <use xlink:href="#TimesNewRomanPSMT-45" transform="translate(61.083984 0)"/>
       <use xlink:href="#TimesNewRomanPSMT-4f" transform="translate(122.167969 0)"/>
      </g>
     </g>
    </g>
    <g id="ytick_2">
     <g id="line2d_13">
      <path d="M 58.52 52.696364
L 709.2 52.696364
" clip-path="url(#paca0006619)" style="fill: none; stroke-dasharray: 1.85,0.8; stroke-dashoffset: 0; stroke: #000000; stroke-width: 0.5"/>
     </g>
     <g id="line2d_14">
      <g>
       <use xlink:href="#mc777d5eb83" x="58.52" y="52.696364" style="stroke: #000000; stroke-width: 0.8"/>
      </g>
     </g>
     <g id="text_8">
      <!-- ISS -->
      <g transform="translate(37.068438 56.168239) scale(0.1 -0.1)">
       <defs>
        <path id="TimesNewRomanPSMT-49" d="M 1975 116
L 1975 0
L 159 0
L 159 116
L 309 116
Q 572 116 691 269
Q 766 369 766 750
L 766 3488
Q 766 3809 725 3913
Q 694 3991 597 4047
Q 459 4122 309 4122
L 159 4122
L 159 4238
L 1975 4238
L 1975 4122
L 1822 4122
Q 1563 4122 1444 3969
Q 1366 3869 1366 3488
L 1366 750
Q 1366 428 1406 325
Q 1438 247 1538 191
Q 1672 116 1822 116
L 1975 116
z
" transform="scale(0.015625)"/>
        <path id="TimesNewRomanPSMT-53" d="M 2934 4334
L 2934 2869
L 2819 2869
Q 2763 3291 2617 3541
Q 2472 3791 2203 3937
Q 1934 4084 1647 4084
Q 1322 4084 1109 3886
Q 897 3688 897 3434
Q 897 3241 1031 3081
Q 1225 2847 1953 2456
Q 2547 2138 2764 1967
Q 2981 1797 3098 1565
Q 3216 1334 3216 1081
Q 3216 600 2842 251
Q 2469 -97 1881 -97
Q 1697 -97 1534 -69
Q 1438 -53 1133 45
Q 828 144 747 144
Q 669 144 623 97
Q 578 50 556 -97
L 441 -97
L 441 1356
L 556 1356
Q 638 900 775 673
Q 913 447 1195 297
Q 1478 147 1816 147
Q 2206 147 2432 353
Q 2659 559 2659 841
Q 2659 997 2573 1156
Q 2488 1316 2306 1453
Q 2184 1547 1640 1851
Q 1097 2156 867 2337
Q 638 2519 519 2737
Q 400 2956 400 3219
Q 400 3675 750 4004
Q 1100 4334 1641 4334
Q 1978 4334 2356 4169
Q 2531 4091 2603 4091
Q 2684 4091 2736 4139
Q 2788 4188 2819 4334
L 2934 4334
z
" transform="scale(0.015625)"/>
       </defs>
       <use xlink:href="#TimesNewRomanPSMT-49"/>
       <use xlink:href="#TimesNewRomanPSMT-53" transform="translate(33.300781 0)"/>
       <use xlink:href="#TimesNewRomanPSMT-53" transform="translate(88.916016 0)"/>
      </g>
     </g>
    </g>
    <g id="ytick_3">
     <g id="line2d_15">
      <path d="M 58.52 80.627273
L 709.2 80.627273
" clip-path="url(#paca0006619)" style="fill: none; stroke-dasharray: 1.85,0.8; stroke-dashoffset: 0; stroke: #000000; stroke-width: 0.5"/>
     </g>
     <g id="line2d_16">
      <g>
       <use xlink:href="#mc777d5eb83" x="58.52" y="80.627273" style="stroke: #000000; stroke-width: 0.8"/>
      </g>
     </g>
     <g id="text_9">
      <!-- PO -->
      <g transform="translate(38.737188 84.099148) scale(0.1 -0.1)">
       <defs>
        <path id="TimesNewRomanPSMT-50" d="M 1313 1984
L 1313 750
Q 1313 350 1400 253
Q 1519 116 1759 116
L 1922 116
L 1922 0
L 106 0
L 106 116
L 266 116
Q 534 116 650 291
Q 713 388 713 750
L 713 3488
Q 713 3888 628 3984
Q 506 4122 266 4122
L 106 4122
L 106 4238
L 1659 4238
Q 2228 4238 2556 4120
Q 2884 4003 3109 3725
Q 3334 3447 3334 3066
Q 3334 2547 2992 2222
Q 2650 1897 2025 1897
Q 1872 1897 1694 1919
Q 1516 1941 1313 1984
z
M 1313 2163
Q 1478 2131 1606 2115
Q 1734 2100 1825 2100
Q 2150 2100 2386 2351
Q 2622 2603 2622 3003
Q 2622 3278 2509 3514
Q 2397 3750 2190 3867
Q 1984 3984 1722 3984
Q 1563 3984 1313 3925
L 1313 2163
z
" transform="scale(0.015625)"/>
       </defs>
       <use xlink:href="#TimesNewRomanPSMT-50"/>
       <use xlink:href="#TimesNewRomanPSMT-4f" transform="translate(55.615234 0)"/>
      </g>
     </g>
    </g>
    <g id="ytick_4">
     <g id="line2d_17">
      <path d="M 58.52 108.558182
L 709.2 108.558182
" clip-path="url(#paca0006619)" style="fill: none; stroke-dasharray: 1.85,0.8; stroke-dashoffset: 0; stroke: #000000; stroke-width: 0.5"/>
     </g>
     <g id="line2d_18">
      <g>
       <use xlink:href="#mc777d5eb83" x="58.52" y="108.558182" style="stroke: #000000; stroke-width: 0.8"/>
      </g>
     </g>
     <g id="text_10">
      <!-- GTO -->
      <g transform="translate(31.143438 112.030057) scale(0.1 -0.1)">
       <defs>
        <path id="TimesNewRomanPSMT-47" d="M 3928 4334
L 4038 2997
L 3928 2997
Q 3763 3497 3500 3750
Q 3122 4116 2528 4116
Q 1719 4116 1297 3475
Q 944 2934 944 2188
Q 944 1581 1178 1081
Q 1413 581 1792 348
Q 2172 116 2572 116
Q 2806 116 3025 175
Q 3244 234 3447 350
L 3447 1575
Q 3447 1894 3398 1992
Q 3350 2091 3248 2142
Q 3147 2194 2891 2194
L 2891 2313
L 4531 2313
L 4531 2194
L 4453 2194
Q 4209 2194 4119 2031
Q 4056 1916 4056 1575
L 4056 278
Q 3697 84 3347 -6
Q 2997 -97 2569 -97
Q 1341 -97 703 691
Q 225 1281 225 2053
Q 225 2613 494 3125
Q 813 3734 1369 4063
Q 1834 4334 2469 4334
Q 2700 4334 2889 4296
Q 3078 4259 3425 4131
Q 3600 4066 3659 4066
Q 3719 4066 3761 4120
Q 3803 4175 3813 4334
L 3928 4334
z
" transform="scale(0.015625)"/>
        <path id="TimesNewRomanPSMT-54" d="M 3703 4238
L 3750 3244
L 3631 3244
Q 3597 3506 3538 3619
Q 3441 3800 3280 3886
Q 3119 3972 2856 3972
L 2259 3972
L 2259 734
Q 2259 344 2344 247
Q 2463 116 2709 116
L 2856 116
L 2856 0
L 1059 0
L 1059 116
L 1209 116
Q 1478 116 1591 278
Q 1659 378 1659 734
L 1659 3972
L 1150 3972
Q 853 3972 728 3928
Q 566 3869 450 3700
Q 334 3531 313 3244
L 194 3244
L 244 4238
L 3703 4238
z
" transform="scale(0.015625)"/>
       </defs>
       <use xlink:href="#TimesNewRomanPSMT-47"/>
       <use xlink:href="#TimesNewRomanPSMT-54" transform="translate(72.216797 0)"/>
       <use xlink:href="#TimesNewRomanPSMT-4f" transform="translate(131.550781 0)"/>
      </g>
     </g>
    </g>
    <g id="ytick_5">
     <g id="line2d_19">
      <path d="M 58.52 136.489091
L 709.2 136.489091
" clip-path="url(#paca0006619)" style="fill: none; stroke-dasharray: 1.85,0.8; stroke-dashoffset: 0; stroke: #000000; stroke-width: 0.5"/>
     </g>
     <g id="line2d_20">
      <g>
       <use xlink:href="#mc777d5eb83" x="58.52" y="136.489091" style="stroke: #000000; stroke-width: 0.8"/>
      </g>
     </g>
     <g id="text_11">
      <!-- ES-L1 -->
      <g transform="translate(25.41375 139.960966) scale(0.1 -0.1)">
       <defs>
        <path id="TimesNewRomanPSMT-2d" d="M 259 1672
L 1875 1672
L 1875 1200
L 259 1200
L 259 1672
z
" transform="scale(0.015625)"/>
        <path id="TimesNewRomanPSMT-31" d="M 750 3822
L 1781 4325
L 1884 4325
L 1884 747
Q 1884 391 1914 303
Q 1944 216 2037 169
Q 2131 122 2419 116
L 2419 0
L 825 0
L 825 116
Q 1125 122 1212 167
Q 1300 213 1334 289
Q 1369 366 1369 747
L 1369 3034
Q 1369 3497 1338 3628
Q 1316 3728 1258 3775
Q 1200 3822 1119 3822
Q 1003 3822 797 3725
L 750 3822
z
" transform="scale(0.015625)"/>
       </defs>
       <use xlink:href="#TimesNewRomanPSMT-45"/>
       <use xlink:href="#TimesNewRomanPSMT-53" transform="translate(61.083984 0)"/>
       <use xlink:href="#TimesNewRomanPSMT-2d" transform="translate(116.699219 0)"/>
       <use xlink:href="#TimesNewRomanPSMT-4c" transform="translate(150 0)"/>
       <use xlink:href="#TimesNewRomanPSMT-31" transform="translate(211.083984 0)"/>
      </g>
     </g>
    </g>
    <g id="ytick_6">
     <g id="line2d_21">
      <path d="M 58.52 164.42
L 709.2 164.42
" clip-path="url(#paca0006619)" style="fill: none; stroke-dasharray: 1.85,0.8; stroke-dashoffset: 0; stroke: #000000; stroke-width: 0.5"/>
     </g>
     <g id="line2d_22">
      <g>
       <use xlink:href="#mc777d5eb83" x="58.52" y="164.42" style="stroke: #000000; stroke-width: 0.8"/>
      </g>
     </g>
     <g id="text_12">
      <!-- SSO -->
      <g transform="translate(33.17625 167.891875) scale(0.1 -0.1)">
       <use xlink:href="#TimesNewRomanPSMT-53"/>
       <use xlink:href="#TimesNewRomanPSMT-53" transform="translate(55.615234 0)"/>
       <use xlink:href="#TimesNewRomanPSMT-4f" transform="translate(111.230469 0)"/>
      </g>
     </g>
    </g>
    <g id="ytick_7">
     <g id="line2d_23">
      <path d="M 58.52 192.350909
L 709.2 192.350909
" clip-path="url(#paca0006619)" style="fill: none; stroke-dasharray: 1.85,0.8; stroke-dashoffset: 0; stroke: #000000; stroke-width: 0.5"/>
     </g>
     <g id="line2d_24">
      <g>
       <use xlink:href="#mc777d5eb83" x="58.52" y="192.350909" style="stroke: #000000; stroke-width: 0.8"/>
      </g>
     </g>
     <g id="text_13">
      <!-- HEO -->
      <g transform="translate(30.968438 195.822784) scale(0.1 -0.1)">
       <defs>
        <path id="TimesNewRomanPSMT-48" d="M 1316 2272
L 3284 2272
L 3284 3484
Q 3284 3809 3244 3913
Q 3213 3991 3113 4047
Q 2978 4122 2828 4122
L 2678 4122
L 2678 4238
L 4491 4238
L 4491 4122
L 4341 4122
Q 4191 4122 4056 4050
Q 3956 4000 3920 3898
Q 3884 3797 3884 3484
L 3884 750
Q 3884 428 3925 325
Q 3956 247 4053 191
Q 4191 116 4341 116
L 4491 116
L 4491 0
L 2678 0
L 2678 116
L 2828 116
Q 3088 116 3206 269
Q 3284 369 3284 750
L 3284 2041
L 1316 2041
L 1316 750
Q 1316 428 1356 325
Q 1388 247 1488 191
Q 1622 116 1772 116
L 1925 116
L 1925 0
L 109 0
L 109 116
L 259 116
Q 522 116 641 269
Q 716 369 716 750
L 716 3484
Q 716 3809 675 3913
Q 644 3991 547 4047
Q 409 4122 259 4122
L 109 4122
L 109 4238
L 1925 4238
L 1925 4122
L 1772 4122
Q 1622 4122 1488 4050
Q 1391 4000 1353 3898
Q 1316 3797 1316 3484
L 1316 2272
z
" transform="scale(0.015625)"/>
       </defs>
       <use xlink:href="#TimesNewRomanPSMT-48"/>
       <use xlink:href="#TimesNewRomanPSMT-45" transform="translate(72.216797 0)"/>
       <use xlink:href="#TimesNewRomanPSMT-4f" transform="translate(133.300781 0)"/>
      </g>
     </g>
    </g>
    <g id="ytick_8">
     <g id="line2d_25">
      <path d="M 58.52 220.281818
L 709.2 220.281818
" clip-path="url(#paca0006619)" style="fill: none; stroke-dasharray: 1.85,0.8; stroke-dashoffset: 0; stroke: #000000; stroke-width: 0.5"/>
     </g>
     <g id="line2d_26">
      <g>
       <use xlink:href="#mc777d5eb83" x="58.52" y="220.281818" style="stroke: #000000; stroke-width: 0.8"/>
      </g>
     </g>
     <g id="text_14">
      <!-- MEO -->
      <g transform="translate(29.298125 223.753693) scale(0.1 -0.1)">
       <defs>
        <path id="TimesNewRomanPSMT-4d" d="M 2619 0
L 981 3566
L 981 734
Q 981 344 1066 247
Q 1181 116 1431 116
L 1581 116
L 1581 0
L 106 0
L 106 116
L 256 116
Q 525 116 638 278
Q 706 378 706 734
L 706 3503
Q 706 3784 644 3909
Q 600 4000 483 4061
Q 366 4122 106 4122
L 106 4238
L 1306 4238
L 2844 922
L 4356 4238
L 5556 4238
L 5556 4122
L 5409 4122
Q 5138 4122 5025 3959
Q 4956 3859 4956 3503
L 4956 734
Q 4956 344 5044 247
Q 5159 116 5409 116
L 5556 116
L 5556 0
L 3756 0
L 3756 116
L 3906 116
Q 4178 116 4288 278
Q 4356 378 4356 734
L 4356 3566
L 2722 0
L 2619 0
z
" transform="scale(0.015625)"/>
       </defs>
       <use xlink:href="#TimesNewRomanPSMT-4d"/>
       <use xlink:href="#TimesNewRomanPSMT-45" transform="translate(88.916016 0)"/>
       <use xlink:href="#TimesNewRomanPSMT-4f" transform="translate(150 0)"/>
      </g>
     </g>
    </g>
    <g id="ytick_9">
     <g id="line2d_27">
      <path d="M 58.52 248.212727
L 709.2 248.212727
" clip-path="url(#paca0006619)" style="fill: none; stroke-dasharray: 1.85,0.8; stroke-dashoffset: 0; stroke: #000000; stroke-width: 0.5"/>
     </g>
     <g id="line2d_28">
      <g>
       <use xlink:href="#mc777d5eb83" x="58.52" y="248.212727" style="stroke: #000000; stroke-width: 0.8"/>
      </g>
     </g>
     <g id="text_15">
      <!-- VLEO -->
      <g transform="translate(24.860625 251.684602) scale(0.1 -0.1)">
       <defs>
        <path id="TimesNewRomanPSMT-56" d="M 4544 4238
L 4544 4122
Q 4319 4081 4203 3978
Q 4038 3825 3909 3509
L 2431 -97
L 2316 -97
L 728 3556
Q 606 3838 556 3900
Q 478 3997 364 4051
Q 250 4106 56 4122
L 56 4238
L 1788 4238
L 1788 4122
Q 1494 4094 1406 4022
Q 1319 3950 1319 3838
Q 1319 3681 1463 3350
L 2541 866
L 3541 3319
Q 3688 3681 3688 3822
Q 3688 3913 3597 3995
Q 3506 4078 3291 4113
Q 3275 4116 3238 4122
L 3238 4238
L 4544 4238
z
" transform="scale(0.015625)"/>
       </defs>
       <use xlink:href="#TimesNewRomanPSMT-56"/>
       <use xlink:href="#TimesNewRomanPSMT-4c" transform="translate(72.216797 0)"/>
       <use xlink:href="#TimesNewRomanPSMT-45" transform="translate(133.300781 0)"/>
       <use xlink:href="#TimesNewRomanPSMT-4f" transform="translate(194.384766 0)"/>
      </g>
     </g>
    </g>
    <g id="ytick_10">
     <g id="line2d_29">
      <path d="M 58.52 276.143636
L 709.2 276.143636
" clip-path="url(#paca0006619)" style="fill: none; stroke-dasharray: 1.85,0.8; stroke-dashoffset: 0; stroke: #000000; stroke-width: 0.5"/>
     </g>
     <g id="line2d_30">
      <g>
       <use xlink:href="#mc777d5eb83" x="58.52" y="276.143636" style="stroke: #000000; stroke-width: 0.8"/>
      </g>
     </g>
     <g id="text_16">
      <!-- SO -->
      <g transform="translate(38.737188 279.615511) scale(0.1 -0.1)">
       <use xlink:href="#TimesNewRomanPSMT-53"/>
       <use xlink:href="#TimesNewRomanPSMT-4f" transform="translate(55.615234 0)"/>
      </g>
     </g>
    </g>
    <g id="ytick_11">
     <g id="line2d_31">
      <path d="M 58.52 304.074545
L 709.2 304.074545
" clip-path="url(#paca0006619)" style="fill: none; stroke-dasharray: 1.85,0.8; stroke-dashoffset: 0; stroke: #000000; stroke-width: 0.5"/>
     </g>
     <g id="line2d_32">
      <g>
       <use xlink:href="#mc777d5eb83" x="58.52" y="304.074545" style="stroke: #000000; stroke-width: 0.8"/>
      </g>
     </g>
     <g id="text_17">
      <!-- GEO -->
      <g transform="translate(30.968438 307.54642) scale(0.1 -0.1)">
       <use xlink:href="#TimesNewRomanPSMT-47"/>
       <use xlink:href="#TimesNewRomanPSMT-45" transform="translate(72.216797 0)"/>
       <use xlink:href="#TimesNewRomanPSMT-4f" transform="translate(133.300781 0)"/>
      </g>
     </g>
    </g>
    <g id="text_18">
     <!-- Orbit -->
     <g transform="translate(18.721563 174.973906) rotate(-90) scale(0.1 -0.1)">
      <use xlink:href="#TimesNewRomanPSMT-4f"/>
      <use xlink:href="#TimesNewRomanPSMT-72" transform="translate(72.216797 0)"/>
      <use xlink:href="#TimesNewRomanPSMT-62" transform="translate(105.517578 0)"/>
      <use xlink:href="#TimesNewRomanPSMT-69" transform="translate(155.517578 0)"/>
      <use xlink:href="#TimesNewRomanPSMT-74" transform="translate(183.300781 0)"/>
     </g>
    </g>
   </g>
   <g id="patch_3">
    <path d="M 58.52 318.04
L 58.52 10.8
" style="fill: none; stroke: #000000; stroke-linejoin: miter; stroke-linecap: square"/>
   </g>
   <g id="patch_4">
    <path d="M 709.2 318.04
L 709.2 10.8
" style="fill: none; stroke: #000000; stroke-linejoin: miter; stroke-linecap: square"/>
   </g>
   <g id="patch_5">
    <path d="M 58.52 318.04
L 709.2 318.04
" style="fill: none; stroke: #000000; stroke-linejoin: miter; stroke-linecap: square"/>
   </g>
   <g id="patch_6">
    <path d="M 58.52 10.8
L 709.2 10.8
" style="fill: none; stroke: #000000; stroke-linejoin: miter; stroke-linecap: square"/>
   </g>
   <g id="PathCollection_1">
    <defs>
     <path id="C0_0_ee01a035ca" d="M 0 4
C 1.060812 4 2.078319 3.578535 2.828427 2.828427
C 3.578535 2.078319 4 1.060812 4 -0
C 4 -1.060812 3.578535 -2.078319 2.828427 -2.828427
C 2.078319 -3.578535 1.060812 -4 0 -4
C -1.060812 -4 -2.078319 -3.578535 -2.828427 -2.828427
C -3.578535 -2.078319 -4 -1.060812 -4 0
C -4 1.060812 -3.578535 2.078319 -2.828427 2.828427
C -2.078319 3.578535 -1.060812 4 0 4
z
"/>
    </defs>
    <g clip-path="url(#paca0006619)">
     <use xlink:href="#C0_0_ee01a035ca" x="88.096364" y="25.972665" style="fill: #1f77b4"/>
    </g>
    <g clip-path="url(#paca0006619)">
     <use xlink:href="#C0_0_ee01a035ca" x="94.742737" y="22.574515" style="fill: #1f77b4"/>
    </g>
    <g clip-path="url(#paca0006619)">
     <use xlink:href="#C0_0_ee01a035ca" x="134.620981" y="23.792424" style="fill: #ff7f0e"/>
    </g>
    <g clip-path="url(#paca0006619)">
     <use xlink:href="#C0_0_ee01a035ca" x="194.438345" y="25.354414" style="fill: #ff7f0e"/>
    </g>
    <g clip-path="url(#paca0006619)">
     <use xlink:href="#C0_0_ee01a035ca" x="280.841205" y="24.07726" style="fill: #ff7f0e"/>
    </g>
    <g clip-path="url(#paca0006619)">
     <use xlink:href="#C0_0_ee01a035ca" x="334.012196" y="26.931613" style="fill: #ff7f0e"/>
    </g>
    <g clip-path="url(#paca0006619)">
     <use xlink:href="#C0_0_ee01a035ca" x="373.890439" y="23.945878" style="fill: #ff7f0e"/>
    </g>
   </g>
   <g id="PathCollection_2">
    <defs>
     <path id="C1_0_80e1b4aee6" d="M 0 4
C 1.060812 4 2.078319 3.578535 2.828427 2.828427
C 3.578535 2.078319 4 1.060812 4 -0
C 4 -1.060812 3.578535 -2.078319 2.828427 -2.828427
C 2.078319 -3.578535 1.060812 -4 0 -4
C -1.060812 -4 -2.078319 -3.578535 -2.828427 -2.828427
C -3.578535 -2.078319 -4 -1.060812 -4 0
C -4 1.060812 -3.578535 2.078319 -2.828427 2.828427
C -2.078319 3.578535 -1.060812 4 0 4
z
"/>
    </defs>
    <g clip-path="url(#paca0006619)">
     <use xlink:href="#C1_0_80e1b4aee6" x="101.389111" y="52.871051" style="fill: #1f77b4"/>
    </g>
    <g clip-path="url(#paca0006619)">
     <use xlink:href="#C1_0_80e1b4aee6" x="127.974607" y="51.665729" style="fill: #ff7f0e"/>
    </g>
    <g clip-path="url(#paca0006619)">
     <use xlink:href="#C1_0_80e1b4aee6" x="154.560102" y="50.852621" style="fill: #1f77b4"/>
    </g>
    <g clip-path="url(#paca0006619)">
     <use xlink:href="#C1_0_80e1b4aee6" x="161.206476" y="55.244158" style="fill: #1f77b4"/>
    </g>
    <g clip-path="url(#paca0006619)">
     <use xlink:href="#C1_0_80e1b4aee6" x="174.499224" y="54.105655" style="fill: #1f77b4"/>
    </g>
    <g clip-path="url(#paca0006619)">
     <use xlink:href="#C1_0_80e1b4aee6" x="187.791971" y="54.827202" style="fill: #1f77b4"/>
    </g>
    <g clip-path="url(#paca0006619)">
     <use xlink:href="#C1_0_80e1b4aee6" x="214.377467" y="53.600643" style="fill: #ff7f0e"/>
    </g>
    <g clip-path="url(#paca0006619)">
     <use xlink:href="#C1_0_80e1b4aee6" x="234.316588" y="53.290667" style="fill: #ff7f0e"/>
    </g>
    <g clip-path="url(#paca0006619)">
     <use xlink:href="#C1_0_80e1b4aee6" x="260.902084" y="51.116909" style="fill: #ff7f0e"/>
    </g>
    <g clip-path="url(#paca0006619)">
     <use xlink:href="#C1_0_80e1b4aee6" x="294.133953" y="53.687055" style="fill: #ff7f0e"/>
    </g>
    <g clip-path="url(#paca0006619)">
     <use xlink:href="#C1_0_80e1b4aee6" x="320.719448" y="54.711077" style="fill: #ff7f0e"/>
    </g>
    <g clip-path="url(#paca0006619)">
     <use xlink:href="#C1_0_80e1b4aee6" x="360.597692" y="50.401239" style="fill: #ff7f0e"/>
    </g>
    <g clip-path="url(#paca0006619)">
     <use xlink:href="#C1_0_80e1b4aee6" x="400.475935" y="50.013638" style="fill: #1f77b4"/>
    </g>
    <g clip-path="url(#paca0006619)">
     <use xlink:href="#C1_0_80e1b4aee6" x="427.06143" y="54.742785" style="fill: #1f77b4"/>
    </g>
    <g clip-path="url(#paca0006619)">
     <use xlink:href="#C1_0_80e1b4aee6" x="480.232421" y="52.976339" style="fill: #1f77b4"/>
    </g>
    <g clip-path="url(#paca0006619)">
     <use xlink:href="#C1_0_80e1b4aee6" x="500.171542" y="51.237002" style="fill: #ff7f0e"/>
    </g>
    <g clip-path="url(#paca0006619)">
     <use xlink:href="#C1_0_80e1b4aee6" x="506.817916" y="53.636666" style="fill: #ff7f0e"/>
    </g>
    <g clip-path="url(#paca0006619)">
     <use xlink:href="#C1_0_80e1b4aee6" x="526.757038" y="52.094212" style="fill: #ff7f0e"/>
    </g>
    <g clip-path="url(#paca0006619)">
     <use xlink:href="#C1_0_80e1b4aee6" x="546.696159" y="54.949262" style="fill: #ff7f0e"/>
    </g>
    <g clip-path="url(#paca0006619)">
     <use xlink:href="#C1_0_80e1b4aee6" x="586.574402" y="54.050883" style="fill: #ff7f0e"/>
    </g>
    <g clip-path="url(#paca0006619)">
     <use xlink:href="#C1_0_80e1b4aee6" x="606.513524" y="50.820844" style="fill: #ff7f0e"/>
    </g>
   </g>
   <g id="PathCollection_3">
    <defs>
     <path id="C2_0_8e1b5abb35" d="M 0 4
C 1.060812 4 2.078319 3.578535 2.828427 2.828427
C 3.578535 2.078319 4 1.060812 4 -0
C 4 -1.060812 3.578535 -2.078319 2.828427 -2.828427
C 2.078319 -3.578535 1.060812 -4 0 -4
C -1.060812 -4 -2.078319 -3.578535 -2.828427 -2.828427
C -3.578535 -2.078319 -4 -1.060812 -4 0
C -4 1.060812 -3.578535 2.078319 -2.828427 2.828427
C -2.078319 3.578535 -1.060812 4 0 4
z
"/>
    </defs>
    <g clip-path="url(#paca0006619)">
     <use xlink:href="#C2_0_8e1b5abb35" x="108.035485" y="79.922628" style="fill: #1f77b4"/>
    </g>
    <g clip-path="url(#paca0006619)">
     <use xlink:href="#C2_0_8e1b5abb35" x="201.084719" y="79.92798" style="fill: #1f77b4"/>
    </g>
    <g clip-path="url(#paca0006619)">
     <use xlink:href="#C2_0_8e1b5abb35" x="254.25571" y="80.22856" style="fill: #ff7f0e"/>
    </g>
    <g clip-path="url(#paca0006619)">
     <use xlink:href="#C2_0_8e1b5abb35" x="307.426701" y="79.440286" style="fill: #ff7f0e"/>
    </g>
    <g clip-path="url(#paca0006619)">
     <use xlink:href="#C2_0_8e1b5abb35" x="340.65857" y="81.572128" style="fill: #ff7f0e"/>
    </g>
    <g clip-path="url(#paca0006619)">
     <use xlink:href="#C2_0_8e1b5abb35" x="367.244065" y="78.029558" style="fill: #ff7f0e"/>
    </g>
    <g clip-path="url(#paca0006619)">
     <use xlink:href="#C2_0_8e1b5abb35" x="393.829561" y="82.789522" style="fill: #1f77b4"/>
    </g>
    <g clip-path="url(#paca0006619)">
     <use xlink:href="#C2_0_8e1b5abb35" x="440.354178" y="82.747564" style="fill: #ff7f0e"/>
    </g>
    <g clip-path="url(#paca0006619)">
     <use xlink:href="#C2_0_8e1b5abb35" x="493.525169" y="77.930418" style="fill: #ff7f0e"/>
    </g>
   </g>
   <g id="PathCollection_4">
    <defs>
     <path id="C3_0_2538c25467" d="M 0 4
C 1.060812 4 2.078319 3.578535 2.828427 2.828427
C 3.578535 2.078319 4 1.060812 4 -0
C 4 -1.060812 3.578535 -2.078319 2.828427 -2.828427
C 2.078319 -3.578535 1.060812 -4 0 -4
C -1.060812 -4 -2.078319 -3.578535 -2.828427 -2.828427
C -3.578535 -2.078319 -4 -1.060812 -4 0
C -4 1.060812 -3.578535 2.078319 -2.828427 2.828427
C -2.078319 3.578535 -1.060812 4 0 4
z
"/>
    </defs>
    <g clip-path="url(#paca0006619)">
     <use xlink:href="#C3_0_2538c25467" x="114.681859" y="109.737213" style="fill: #1f77b4"/>
    </g>
    <g clip-path="url(#paca0006619)">
     <use xlink:href="#C3_0_2538c25467" x="121.328233" y="106.165417" style="fill: #1f77b4"/>
    </g>
    <g clip-path="url(#paca0006619)">
     <use xlink:href="#C3_0_2538c25467" x="141.267354" y="105.947098" style="fill: #1f77b4"/>
    </g>
    <g clip-path="url(#paca0006619)">
     <use xlink:href="#C3_0_2538c25467" x="147.913728" y="109.268192" style="fill: #1f77b4"/>
    </g>
    <g clip-path="url(#paca0006619)">
     <use xlink:href="#C3_0_2538c25467" x="181.145598" y="108.371705" style="fill: #1f77b4"/>
    </g>
    <g clip-path="url(#paca0006619)">
     <use xlink:href="#C3_0_2538c25467" x="207.731093" y="105.988863" style="fill: #1f77b4"/>
    </g>
    <g clip-path="url(#paca0006619)">
     <use xlink:href="#C3_0_2538c25467" x="221.023841" y="110.039442" style="fill: #ff7f0e"/>
    </g>
    <g clip-path="url(#paca0006619)">
     <use xlink:href="#C3_0_2538c25467" x="227.670215" y="106.864302" style="fill: #ff7f0e"/>
    </g>
    <g clip-path="url(#paca0006619)">
     <use xlink:href="#C3_0_2538c25467" x="240.962962" y="108.078424" style="fill: #ff7f0e"/>
    </g>
    <g clip-path="url(#paca0006619)">
     <use xlink:href="#C3_0_2538c25467" x="247.609336" y="109.855852" style="fill: #1f77b4"/>
    </g>
    <g clip-path="url(#paca0006619)">
     <use xlink:href="#C3_0_2538c25467" x="267.548458" y="111.068588" style="fill: #1f77b4"/>
    </g>
    <g clip-path="url(#paca0006619)">
     <use xlink:href="#C3_0_2538c25467" x="274.194831" y="109.439559" style="fill: #ff7f0e"/>
    </g>
    <g clip-path="url(#paca0006619)">
     <use xlink:href="#C3_0_2538c25467" x="287.487579" y="108.826327" style="fill: #1f77b4"/>
    </g>
    <g clip-path="url(#paca0006619)">
     <use xlink:href="#C3_0_2538c25467" x="300.780327" y="110.082288" style="fill: #ff7f0e"/>
    </g>
    <g clip-path="url(#paca0006619)">
     <use xlink:href="#C3_0_2538c25467" x="314.073075" y="108.612061" style="fill: #1f77b4"/>
    </g>
    <g clip-path="url(#paca0006619)">
     <use xlink:href="#C3_0_2538c25467" x="347.304944" y="106.412252" style="fill: #ff7f0e"/>
    </g>
    <g clip-path="url(#paca0006619)">
     <use xlink:href="#C3_0_2538c25467" x="353.951318" y="109.523876" style="fill: #ff7f0e"/>
    </g>
    <g clip-path="url(#paca0006619)">
     <use xlink:href="#C3_0_2538c25467" x="380.536813" y="109.533611" style="fill: #ff7f0e"/>
    </g>
    <g clip-path="url(#paca0006619)">
     <use xlink:href="#C3_0_2538c25467" x="387.183187" y="106.572321" style="fill: #1f77b4"/>
    </g>
    <g clip-path="url(#paca0006619)">
     <use xlink:href="#C3_0_2538c25467" x="413.768682" y="106.822933" style="fill: #ff7f0e"/>
    </g>
    <g clip-path="url(#paca0006619)">
     <use xlink:href="#C3_0_2538c25467" x="420.415056" y="106.127127" style="fill: #1f77b4"/>
    </g>
    <g clip-path="url(#paca0006619)">
     <use xlink:href="#C3_0_2538c25467" x="433.707804" y="109.580645" style="fill: #ff7f0e"/>
    </g>
    <g clip-path="url(#paca0006619)">
     <use xlink:href="#C3_0_2538c25467" x="447.000552" y="106.021005" style="fill: #ff7f0e"/>
    </g>
    <g clip-path="url(#paca0006619)">
     <use xlink:href="#C3_0_2538c25467" x="453.646925" y="109.336434" style="fill: #ff7f0e"/>
    </g>
    <g clip-path="url(#paca0006619)">
     <use xlink:href="#C3_0_2538c25467" x="466.939673" y="107.50461" style="fill: #ff7f0e"/>
    </g>
    <g clip-path="url(#paca0006619)">
     <use xlink:href="#C3_0_2538c25467" x="533.403412" y="110.330119" style="fill: #1f77b4"/>
    </g>
    <g clip-path="url(#paca0006619)">
     <use xlink:href="#C3_0_2538c25467" x="553.342533" y="108.032752" style="fill: #ff7f0e"/>
    </g>
   </g>
   <g id="PathCollection_5">
    <defs>
     <path id="m935da5f082" d="M 0 4
C 1.060812 4 2.078319 3.578535 2.828427 2.828427
C 3.578535 2.078319 4 1.060812 4 0
C 4 -1.060812 3.578535 -2.078319 2.828427 -2.828427
C 2.078319 -3.578535 1.060812 -4 0 -4
C -1.060812 -4 -2.078319 -3.578535 -2.828427 -2.828427
C -3.578535 -2.078319 -4 -1.060812 -4 0
C -4 1.060812 -3.578535 2.078319 -2.828427 2.828427
C -2.078319 3.578535 -1.060812 4 0 4
z
"/>
    </defs>
    <g clip-path="url(#paca0006619)">
     <use xlink:href="#m935da5f082" x="167.85285" y="136.489091" style="fill: #ff7f0e"/>
    </g>
   </g>
   <g id="PathCollection_6">
    <defs>
     <path id="C4_0_f7f2013842" d="M 0 4
C 1.060812 4 2.078319 3.578535 2.828427 2.828427
C 3.578535 2.078319 4 1.060812 4 -0
C 4 -1.060812 3.578535 -2.078319 2.828427 -2.828427
C 2.078319 -3.578535 1.060812 -4 0 -4
C -1.060812 -4 -2.078319 -3.578535 -2.828427 -2.828427
C -3.578535 -2.078319 -4 -1.060812 -4 0
C -4 1.060812 -3.578535 2.078319 -2.828427 2.828427
C -2.078319 3.578535 -1.060812 4 0 4
z
"/>
    </defs>
    <g clip-path="url(#paca0006619)">
     <use xlink:href="#C4_0_f7f2013842" x="327.365822" y="165.6153" style="fill: #ff7f0e"/>
    </g>
    <g clip-path="url(#paca0006619)">
     <use xlink:href="#C4_0_f7f2013842" x="460.293299" y="164.348347" style="fill: #ff7f0e"/>
    </g>
    <g clip-path="url(#paca0006619)">
     <use xlink:href="#C4_0_f7f2013842" x="473.586047" y="162.46515" style="fill: #ff7f0e"/>
    </g>
    <g clip-path="url(#paca0006619)">
     <use xlink:href="#C4_0_f7f2013842" x="520.110664" y="161.726527" style="fill: #ff7f0e"/>
    </g>
    <g clip-path="url(#paca0006619)">
     <use xlink:href="#C4_0_f7f2013842" x="646.391767" y="162.295032" style="fill: #ff7f0e"/>
    </g>
   </g>
   <g id="PathCollection_7">
    <g clip-path="url(#paca0006619)">
     <use xlink:href="#m935da5f082" x="407.122308" y="192.350909" style="fill: #ff7f0e"/>
    </g>
   </g>
   <g id="PathCollection_8">
    <defs>
     <path id="C5_0_ef8e3e9655" d="M 0 4
C 1.060812 4 2.078319 3.578535 2.828427 2.828427
C 3.578535 2.078319 4 1.060812 4 -0
C 4 -1.060812 3.578535 -2.078319 2.828427 -2.828427
C 2.078319 -3.578535 1.060812 -4 0 -4
C -1.060812 -4 -2.078319 -3.578535 -2.828427 -2.828427
C -3.578535 -2.078319 -4 -1.060812 -4 0
C -4 1.060812 -3.578535 2.078319 -2.828427 2.828427
C -2.078319 3.578535 -1.060812 4 0 4
z
"/>
    </defs>
    <g clip-path="url(#paca0006619)">
     <use xlink:href="#C5_0_ef8e3e9655" x="486.878795" y="218.736447" style="fill: #1f77b4"/>
    </g>
    <g clip-path="url(#paca0006619)">
     <use xlink:href="#C5_0_ef8e3e9655" x="626.452646" y="218.482814" style="fill: #ff7f0e"/>
    </g>
    <g clip-path="url(#paca0006619)">
     <use xlink:href="#C5_0_ef8e3e9655" x="679.623636" y="221.229867" style="fill: #ff7f0e"/>
    </g>
   </g>
   <g id="PathCollection_9">
    <defs>
     <path id="C6_0_d4a51ba894" d="M 0 4
C 1.060812 4 2.078319 3.578535 2.828427 2.828427
C 3.578535 2.078319 4 1.060812 4 -0
C 4 -1.060812 3.578535 -2.078319 2.828427 -2.828427
C 2.078319 -3.578535 1.060812 -4 0 -4
C -1.060812 -4 -2.078319 -3.578535 -2.828427 -2.828427
C -3.578535 -2.078319 -4 -1.060812 -4 0
C -4 1.060812 -3.578535 2.078319 -2.828427 2.828427
C -2.078319 3.578535 -1.060812 4 0 4
z
"/>
    </defs>
    <g clip-path="url(#paca0006619)">
     <use xlink:href="#C6_0_d4a51ba894" x="513.46429" y="250.032389" style="fill: #ff7f0e"/>
    </g>
    <g clip-path="url(#paca0006619)">
     <use xlink:href="#C6_0_d4a51ba894" x="540.049785" y="246.283864" style="fill: #ff7f0e"/>
    </g>
    <g clip-path="url(#paca0006619)">
     <use xlink:href="#C6_0_d4a51ba894" x="559.988907" y="249.922554" style="fill: #ff7f0e"/>
    </g>
    <g clip-path="url(#paca0006619)">
     <use xlink:href="#C6_0_d4a51ba894" x="573.281655" y="246.505765" style="fill: #ff7f0e"/>
    </g>
    <g clip-path="url(#paca0006619)">
     <use xlink:href="#C6_0_d4a51ba894" x="579.928029" y="246.523333" style="fill: #1f77b4"/>
    </g>
    <g clip-path="url(#paca0006619)">
     <use xlink:href="#C6_0_d4a51ba894" x="593.220776" y="249.294472" style="fill: #1f77b4"/>
    </g>
    <g clip-path="url(#paca0006619)">
     <use xlink:href="#C6_0_d4a51ba894" x="599.86715" y="250.457833" style="fill: #ff7f0e"/>
    </g>
    <g clip-path="url(#paca0006619)">
     <use xlink:href="#C6_0_d4a51ba894" x="613.159898" y="246.791787" style="fill: #ff7f0e"/>
    </g>
    <g clip-path="url(#paca0006619)">
     <use xlink:href="#C6_0_d4a51ba894" x="619.806272" y="248.407867" style="fill: #ff7f0e"/>
    </g>
    <g clip-path="url(#paca0006619)">
     <use xlink:href="#C6_0_d4a51ba894" x="639.745393" y="249.870662" style="fill: #ff7f0e"/>
    </g>
    <g clip-path="url(#paca0006619)">
     <use xlink:href="#C6_0_d4a51ba894" x="653.038141" y="247.912127" style="fill: #ff7f0e"/>
    </g>
    <g clip-path="url(#paca0006619)">
     <use xlink:href="#C6_0_d4a51ba894" x="659.684515" y="250.012839" style="fill: #ff7f0e"/>
    </g>
    <g clip-path="url(#paca0006619)">
     <use xlink:href="#C6_0_d4a51ba894" x="666.330889" y="249.930351" style="fill: #ff7f0e"/>
    </g>
    <g clip-path="url(#paca0006619)">
     <use xlink:href="#C6_0_d4a51ba894" x="672.977263" y="250.731404" style="fill: #ff7f0e"/>
    </g>
   </g>
   <g id="PathCollection_10">
    <defs>
     <path id="m3c2c60db48" d="M 0 4
C 1.060812 4 2.078319 3.578535 2.828427 2.828427
C 3.578535 2.078319 4 1.060812 4 0
C 4 -1.060812 3.578535 -2.078319 2.828427 -2.828427
C 2.078319 -3.578535 1.060812 -4 0 -4
C -1.060812 -4 -2.078319 -3.578535 -2.828427 -2.828427
C -3.578535 -2.078319 -4 -1.060812 -4 0
C -4 1.060812 -3.578535 2.078319 -2.828427 2.828427
C -2.078319 3.578535 -1.060812 4 0 4
z
"/>
    </defs>
    <g clip-path="url(#paca0006619)">
     <use xlink:href="#m3c2c60db48" x="566.635281" y="276.143636" style="fill: #1f77b4"/>
    </g>
   </g>
   <g id="PathCollection_11">
    <g clip-path="url(#paca0006619)">
     <use xlink:href="#m935da5f082" x="633.099019" y="304.074545" style="fill: #ff7f0e"/>
    </g>
   </g>
   <g id="line2d_33"/>
   <g id="line2d_34"/>
   <g id="legend_1">
    <g id="patch_7">
     <path d="M 665.2 61.160938
L 702.2 61.160938
Q 704.2 61.160938 704.2 59.160938
L 704.2 17.8
Q 704.2 15.8 702.2 15.8
L 665.2 15.8
Q 663.2 15.8 663.2 17.8
L 663.2 59.160938
Q 663.2 61.160938 665.2 61.160938
z
" style="fill: #ffffff; opacity: 0.8; stroke: #cccccc; stroke-linejoin: miter"/>
    </g>
    <g id="text_19">
     <!-- Class -->
     <g transform="translate(672.864062 26.74375) scale(0.1 -0.1)">
      <defs>
       <path id="TimesNewRomanPSMT-43" d="M 3853 4334
L 3950 2894
L 3853 2894
Q 3659 3541 3300 3825
Q 2941 4109 2438 4109
Q 2016 4109 1675 3895
Q 1334 3681 1139 3212
Q 944 2744 944 2047
Q 944 1472 1128 1050
Q 1313 628 1683 403
Q 2053 178 2528 178
Q 2941 178 3256 354
Q 3572 531 3950 1056
L 4047 994
Q 3728 428 3303 165
Q 2878 -97 2294 -97
Q 1241 -97 663 684
Q 231 1266 231 2053
Q 231 2688 515 3219
Q 800 3750 1298 4042
Q 1797 4334 2388 4334
Q 2847 4334 3294 4109
Q 3425 4041 3481 4041
Q 3566 4041 3628 4100
Q 3709 4184 3744 4334
L 3853 4334
z
" transform="scale(0.015625)"/>
       <path id="TimesNewRomanPSMT-61" d="M 1822 413
Q 1381 72 1269 19
Q 1100 -59 909 -59
Q 613 -59 420 144
Q 228 347 228 678
Q 228 888 322 1041
Q 450 1253 767 1440
Q 1084 1628 1822 1897
L 1822 2009
Q 1822 2438 1686 2597
Q 1550 2756 1291 2756
Q 1094 2756 978 2650
Q 859 2544 859 2406
L 866 2225
Q 866 2081 792 2003
Q 719 1925 600 1925
Q 484 1925 411 2006
Q 338 2088 338 2228
Q 338 2497 613 2722
Q 888 2947 1384 2947
Q 1766 2947 2009 2819
Q 2194 2722 2281 2516
Q 2338 2381 2338 1966
L 2338 994
Q 2338 584 2353 492
Q 2369 400 2405 369
Q 2441 338 2488 338
Q 2538 338 2575 359
Q 2641 400 2828 588
L 2828 413
Q 2478 -56 2159 -56
Q 2006 -56 1915 50
Q 1825 156 1822 413
z
M 1822 616
L 1822 1706
Q 1350 1519 1213 1441
Q 966 1303 859 1153
Q 753 1003 753 825
Q 753 600 887 451
Q 1022 303 1197 303
Q 1434 303 1822 616
z
" transform="scale(0.015625)"/>
       <path id="TimesNewRomanPSMT-73" d="M 2050 2947
L 2050 1972
L 1947 1972
Q 1828 2431 1642 2597
Q 1456 2763 1169 2763
Q 950 2763 815 2647
Q 681 2531 681 2391
Q 681 2216 781 2091
Q 878 1963 1175 1819
L 1631 1597
Q 2266 1288 2266 781
Q 2266 391 1970 151
Q 1675 -88 1309 -88
Q 1047 -88 709 6
Q 606 38 541 38
Q 469 38 428 -44
L 325 -44
L 325 978
L 428 978
Q 516 541 762 319
Q 1009 97 1316 97
Q 1531 97 1667 223
Q 1803 350 1803 528
Q 1803 744 1651 891
Q 1500 1038 1047 1263
Q 594 1488 453 1669
Q 313 1847 313 2119
Q 313 2472 555 2709
Q 797 2947 1181 2947
Q 1350 2947 1591 2875
Q 1750 2828 1803 2828
Q 1853 2828 1881 2850
Q 1909 2872 1947 2947
L 2050 2947
z
" transform="scale(0.015625)"/>
      </defs>
      <use xlink:href="#TimesNewRomanPSMT-43"/>
      <use xlink:href="#TimesNewRomanPSMT-6c" transform="translate(66.699219 0)"/>
      <use xlink:href="#TimesNewRomanPSMT-61" transform="translate(94.482422 0)"/>
      <use xlink:href="#TimesNewRomanPSMT-73" transform="translate(138.867188 0)"/>
      <use xlink:href="#TimesNewRomanPSMT-73" transform="translate(177.783203 0)"/>
     </g>
    </g>
    <g id="line2d_35">
     <g>
      <use xlink:href="#m3c2c60db48" x="677.2" y="37.382813" style="fill: #1f77b4"/>
     </g>
    </g>
    <g id="text_20">
     <!-- 0 -->
     <g transform="translate(695.2 40.882813) scale(0.1 -0.1)">
      <use xlink:href="#TimesNewRomanPSMT-30"/>
     </g>
    </g>
    <g id="line2d_36">
     <g>
      <use xlink:href="#m935da5f082" x="677.2" y="51.521875" style="fill: #ff7f0e"/>
     </g>
    </g>
    <g id="text_21">
     <!-- 1 -->
     <g transform="translate(695.2 55.021875) scale(0.1 -0.1)">
      <use xlink:href="#TimesNewRomanPSMT-31"/>
     </g>
    </g>
   </g>
  </g>
 </g>
 <defs>
  <clipPath id="paca0006619">
   <rect x="58.52" y="10.8" width="650.68" height="307.24"/>
  </clipPath>
 </defs>
</svg>
